<svg xmlns="http://www.w3.org/2000/svg" viewBox="0 0 512 512" width="512" height="512"><rect width="512" height="512" rx="92" fill="#a82030"></rect><path d="M259.05 27.43Q389.42 27.77 401.61 30.48Q413.8 33.19 423.28 37.25Q432.76 41.31 440.89 47.41Q449.02 53.5 456.13 61.97Q463.24 70.43 467.3 77.88Q471.37 85.33 475.43 100.23Q479.49 115.13 478.81 132.74Q478.14 150.35 472.72 167.96Q467.3 185.57 456.47 203.85Q445.63 222.14 437.84 230.6Q430.05 239.07 419.89 246.52Q409.74 253.97 396.53 259.72Q383.32 265.48 391.11 269.88Q398.9 274.29 406.01 281.4Q413.12 288.51 417.86 300.7Q422.6 312.89 421.93 334.56Q421.25 356.23 413.12 394.84Q404.99 433.44 404.99 444.95Q404.99 456.47 407.03 461.21Q409.06 465.95 412.44 469.33Q415.83 472.72 414.81 478.48Q413.8 484.23 361.31 483.89Q308.83 483.56 308.15 463.92Q307.47 444.28 314.92 405.67Q322.37 367.07 322.37 349.46Q322.37 331.85 319.66 325.76Q316.95 319.66 311.2 315.26Q305.44 310.86 295.28 308.15Q285.12 305.44 275.64 304.76Q266.16 304.08 215.37 304.08Q164.57 304.08 161.52 313.9Q158.48 323.72 142.22 403.64Q125.97 483.56 78.56 483.56Q31.15 483.56 79.92 255.32Q128.68 27.09 259.05 27.43Z M270.56 106.67Q336.59 106.33 347.43 109.04Q358.26 111.75 365.38 117.5Q372.49 123.26 375.87 131.39Q379.26 139.51 379.26 150.35Q379.26 161.19 375.87 174.05Q372.49 186.92 364.7 198.1Q356.91 209.27 351.49 213.33Q346.07 217.4 335.24 221.46Q324.4 225.52 316.28 226.88Q308.15 228.23 244.49 228.23Q180.83 228.23 180.49 225.19Q180.15 222.14 192.34 164.57Q204.53 107.01 270.56 106.67Z" fill="#ede8e0" fill-rule="evenodd"></path></svg>